<svg width="244" height="590" viewBox="0 0 244 590" fill="none" xmlns="http://www.w3.org/2000/svg">
<path d="M61.6695 455.87C61.6695 446.09 66.3295 434.54 75.5295 421.53C79.6177 415.768 84.1303 410.32 89.0295 405.23V385.87H88.9295V341.66C70.0436 339.286 52.2044 331.655 37.4448 319.635C22.6851 307.616 11.5987 291.692 5.44891 273.679C-0.700867 255.665 -1.66669 236.286 2.66156 217.75C6.98981 199.214 16.438 182.267 29.9295 168.84L30.8195 167.96L170.409 308.22V231.93H164.409C153.087 231.046 142.511 225.934 134.785 217.609C127.059 209.284 122.748 198.357 122.71 187V163.1C119.18 155.33 113.89 148.96 108.18 145.63L109.44 143.48C114.2 146.467 118.221 150.495 121.2 155.26C120.217 151.7 118.718 148.304 116.75 145.18L118.84 143.83C120.418 146.315 121.706 148.972 122.68 151.75V141.28C119.15 133.5 113.859 127.14 108.149 123.81L109.409 121.66C114.184 124.643 118.219 128.671 121.21 133.44C120.22 129.878 118.717 126.479 116.75 123.35L118.84 122C120.416 124.489 121.704 127.15 122.68 129.93V119.46C119.15 111.68 113.859 105.32 108.149 101.98L109.409 99.83C114.182 102.819 118.216 106.85 121.21 111.62C120.22 108.058 118.717 104.659 116.75 101.53L118.84 100.18C120.416 102.669 121.704 105.33 122.68 108.11V97.64C119.15 89.86 113.859 83.5 108.149 80.16L109.409 78.01C114.181 80.9978 118.212 85.029 121.2 89.8C120.21 86.2383 118.707 82.8394 116.74 79.71L118.83 78.36C120.406 80.8492 121.694 83.5096 122.669 86.29V75.72C120.044 69.6936 116.023 64.3775 110.94 60.21L112.47 58.21C115.906 60.9485 118.866 64.2361 121.23 67.94C120.313 64.6547 118.968 61.5043 117.23 58.57L119.35 57.28C120.686 59.4974 121.798 61.8423 122.669 64.28V53.88C120.509 49.0465 117.494 44.6426 113.769 40.88L115.519 39.11C117.67 41.2487 119.584 43.6123 121.23 46.16C120.399 43.1805 119.218 40.3103 117.71 37.61L119.88 36.38C120.977 38.3396 121.91 40.3865 122.669 42.5V36.36H125.2V42.94C126 40.6674 127.004 38.4719 128.2 36.38L130.36 37.61C128.856 40.3124 127.674 43.1821 126.84 46.16C128.485 43.6123 130.399 41.2487 132.549 39.11L134.299 40.88C130.508 44.7382 127.458 49.2599 125.299 54.22V64.74C126.193 62.1587 127.35 59.6757 128.75 57.33L130.88 58.62C129.137 61.5522 127.792 64.7031 126.88 67.99C129.243 64.2861 132.203 60.9985 135.639 58.26L137.169 60.26C131.974 64.4694 127.868 69.8683 125.2 76V86.51C126.192 83.6515 127.511 80.9168 129.13 78.36L131.22 79.71C129.252 82.8394 127.749 86.2383 126.76 89.8C129.75 85.0279 133.785 80.9967 138.56 78.01L139.82 80.16C134.06 83.52 128.74 89.96 125.2 97.82V108.34C126.19 105.477 127.509 102.739 129.13 100.18L131.22 101.53C129.252 104.659 127.749 108.058 126.76 111.62C129.753 106.85 133.787 102.819 138.56 99.83L139.82 101.98C134.06 105.34 128.74 111.78 125.2 119.64V130.16C126.19 127.298 127.509 124.559 129.13 122L131.22 123.35C129.252 126.479 127.749 129.878 126.76 133.44C129.75 128.671 133.785 124.643 138.56 121.66L139.82 123.81C134.06 127.17 128.74 133.6 125.2 141.46V152C126.188 149.14 127.507 146.405 129.13 143.85L131.22 145.2C129.252 148.326 127.749 151.721 126.76 155.28C129.753 150.513 133.787 146.485 138.56 143.5L139.82 145.65C134.06 149.01 128.74 155.44 125.2 163.3V187C125.226 197.72 129.286 208.038 136.57 215.903C143.855 223.768 153.833 228.604 164.519 229.45H170.409V126.81C166.879 119.03 161.59 112.67 155.88 109.34L157.139 107.19C161.916 110.179 165.949 114.218 168.93 119C167.944 115.437 166.441 112.037 164.47 108.91L166.57 107.56C168.146 110.049 169.434 112.71 170.409 115.49V105C166.879 97.22 161.59 90.86 155.88 87.52L157.139 85.37C161.911 88.357 165.942 92.3883 168.93 97.16C167.944 93.5968 166.441 90.1973 164.47 87.07L166.57 85.72C168.146 88.2092 169.434 90.8696 170.409 93.65V83.17C166.879 75.39 161.59 69.03 155.88 65.69L157.139 63.54C161.913 66.5243 165.945 70.5561 168.93 75.33C167.944 71.7667 166.441 68.3673 164.47 65.24L166.57 63.89C168.146 66.3792 169.434 69.0396 170.409 71.82V61.35C166.879 53.57 161.59 47.21 155.88 43.87L157.139 41.72C161.913 44.7043 165.945 48.7361 168.93 53.51C167.944 49.9468 166.441 46.5473 164.47 43.42L166.57 42.07C168.146 44.5557 169.434 47.2128 170.409 49.99V39.43C167.784 33.4005 163.764 28.0811 158.68 23.91L160.2 21.91C163.636 24.6507 166.599 27.9379 168.97 31.64C168.053 28.3547 166.708 25.2043 164.97 22.27L167.1 20.98C168.436 23.1974 169.548 25.5423 170.419 27.98V17.59C168.259 12.7565 165.244 8.35259 161.519 4.59L163.269 2.82001C165.417 4.94304 167.331 7.28973 168.98 9.82001C168.145 6.84206 166.963 3.9724 165.46 1.26999L167.62 0.0400085C168.724 1.99723 169.661 4.04455 170.419 6.16V0H172.909V6.57001C173.696 4.30508 174.68 2.11336 175.85 0.019989L178.019 1.25C176.516 3.95241 175.334 6.82204 174.5 9.79999C176.148 7.26971 178.062 4.92302 180.21 2.79999L181.96 4.57001C178.168 8.42821 175.118 12.9499 172.96 17.91V28.43C173.852 25.8479 175.008 23.3647 176.409 21.02L178.539 22.31C176.801 25.2443 175.456 28.3947 174.539 31.68C176.91 27.9779 179.873 24.6907 183.31 21.95L184.83 23.95C179.667 28.1904 175.6 33.6092 172.97 39.75V50.26C173.96 47.4007 175.279 44.6658 176.899 42.11L178.99 43.46C177.018 46.5873 175.515 49.9867 174.529 53.55C177.517 48.7757 181.553 44.7439 186.33 41.76L187.59 43.91C181.83 47.27 176.51 53.71 172.97 61.57V72C173.962 69.1415 175.281 66.4068 176.899 63.85L178.99 65.2C177.018 68.3273 175.515 71.7268 174.529 75.29C177.517 70.5157 181.553 66.4839 186.33 63.5L187.59 65.65C181.83 69.01 176.51 75.45 172.97 83.31V93.83C173.96 90.9675 175.279 88.2293 176.899 85.67L178.99 87.02C177.018 90.1473 175.515 93.5467 174.529 97.11C177.52 92.3379 181.555 88.3067 186.33 85.32L187.59 87.47C181.83 90.84 176.51 97.27 172.97 105.13V115.65C173.96 112.787 175.279 110.049 176.899 107.49L178.99 108.84C177.018 111.967 175.515 115.367 174.529 118.93C177.518 114.158 181.553 110.13 186.33 107.15L187.59 109.3C181.83 112.66 176.51 119.09 172.97 126.95V310.73L173.31 311.07L174.19 311.96L173.31 312.84C163.903 322.256 152.727 329.719 140.426 334.799C128.124 339.879 114.939 342.475 101.63 342.44H101.399C98.0661 342.44 94.7662 342.273 91.4996 341.94V380.41H91.5895V405.41C96.4107 410.45 100.859 415.835 104.899 421.52C114.099 434.52 118.76 446.08 118.76 455.86C118.747 463.182 115.919 470.219 110.861 475.513C105.804 480.807 98.9033 483.953 91.5895 484.3V511.3C96.4107 516.34 100.859 521.725 104.899 527.41C114.099 540.41 118.76 551.97 118.76 561.75C118.563 569.178 115.474 576.236 110.15 581.42C104.827 586.604 97.6902 589.505 90.2596 589.505C82.829 589.505 75.6919 586.604 70.3686 581.42C65.0453 576.236 61.9564 569.178 61.7596 561.75C61.7596 551.97 66.4196 540.42 75.6196 527.41C79.6836 521.689 84.1622 516.275 89.0195 511.21V484.31C81.6739 484.008 74.7287 480.882 69.6328 475.583C64.5368 470.284 61.6839 463.222 61.6695 455.87ZM116.19 455.87C116.19 437.53 97.9495 416.07 91.5195 409.08V481.8C98.1717 481.462 104.44 478.583 109.033 473.759C113.625 468.934 116.19 462.531 116.2 455.87H116.19ZM91.4295 587.73C98.0994 587.414 104.392 584.544 109.003 579.715C113.615 574.886 116.192 568.467 116.2 561.79C116.2 543.45 97.9595 521.99 91.5295 515V574.87H91.4395L91.4295 587.73ZM37.1995 178C24.4716 190.951 15.9977 207.476 12.9095 225.37L93.3895 238.27C93.6822 237.363 94.1251 236.511 94.6995 235.75L37.1995 178ZM92.9996 240.75L12.4896 227.84C11.8722 232.146 11.5614 236.49 11.5595 240.84C11.5351 254.568 14.6693 268.117 20.7195 280.44L93.4395 243.56C93.1478 242.686 92.9993 241.771 92.9996 240.85V240.75ZM94.5795 245.75L21.8495 282.63C30.3242 298.676 43.4094 311.817 59.4195 320.36L96.5795 247.76C96.1991 247.485 95.8382 247.185 95.4996 246.86C95.1676 246.525 94.8632 246.164 94.5895 245.78L94.5795 245.75ZM61.6495 321.48C74.0471 327.628 87.7012 330.818 101.539 330.8C105.778 330.796 110.012 330.499 114.21 329.91L101.61 249.35H101.539C100.607 249.347 99.6817 249.192 98.7995 248.89L61.6495 321.48ZM96.4896 237.48C95.6733 238.634 95.2905 240.038 95.4085 241.447C95.5266 242.855 96.1379 244.176 97.1348 245.178C98.1317 246.18 99.4501 246.797 100.858 246.922C102.265 247.047 103.672 246.671 104.83 245.86L96.4896 237.48ZM106.62 247.66C105.855 248.23 105 248.667 104.09 248.95L116.69 329.49C134.579 326.47 151.124 318.07 164.12 305.41L106.62 247.66ZM93.8895 339.59C93.902 339.423 93.9768 339.266 94.0989 339.152C94.2211 339.037 94.3819 338.972 94.5495 338.97C94.7298 338.97 94.9028 339.042 95.0303 339.169C95.1579 339.297 95.2296 339.47 95.2296 339.65C96.8796 339.75 98.5396 339.81 100.23 339.84C100.219 339.767 100.219 339.693 100.23 339.62C100.23 339.44 100.301 339.267 100.429 339.139C100.556 339.012 100.729 338.94 100.909 338.94C101.09 338.94 101.263 339.012 101.39 339.139C101.518 339.267 101.59 339.44 101.59 339.62C101.605 339.696 101.605 339.774 101.59 339.85C103.26 339.85 104.93 339.85 106.59 339.74C106.59 339.74 106.59 339.66 106.59 339.62C106.59 339.44 106.661 339.267 106.789 339.139C106.916 339.012 107.089 338.94 107.269 338.94C107.45 338.94 107.623 339.012 107.75 339.139C107.878 339.267 107.95 339.44 107.95 339.62C109.66 339.52 111.349 339.37 113.039 339.18C113.1 339.095 113.179 339.026 113.271 338.977C113.363 338.929 113.465 338.902 113.57 338.9C113.729 338.901 113.882 338.962 114 339.07C114.9 338.96 115.79 338.82 116.68 338.68C116.515 338.66 116.363 338.58 116.253 338.456C116.143 338.331 116.082 338.171 116.082 338.005C116.082 337.839 116.143 337.679 116.253 337.554C116.363 337.43 116.515 337.35 116.68 337.33C116.86 337.33 117.033 337.402 117.16 337.529C117.288 337.657 117.36 337.83 117.36 338.01C117.358 338.15 117.313 338.286 117.231 338.399C117.148 338.512 117.032 338.596 116.899 338.64C118.749 338.36 120.579 338.05 122.399 337.64C122.459 337.542 122.543 337.46 122.643 337.403C122.742 337.345 122.855 337.313 122.97 337.31C123.107 337.312 123.24 337.358 123.35 337.44C124.11 337.27 124.879 337.09 125.639 336.9C125.515 336.771 125.444 336.599 125.44 336.42C125.44 336.24 125.511 336.067 125.639 335.939C125.766 335.812 125.939 335.74 126.12 335.74C126.3 335.74 126.473 335.812 126.6 335.939C126.728 336.067 126.799 336.24 126.799 336.42C126.809 336.483 126.809 336.547 126.799 336.61C130.672 335.603 134.479 334.36 138.2 332.89C138.257 332.798 138.337 332.723 138.431 332.671C138.525 332.618 138.632 332.59 138.74 332.59H138.889C139.669 332.27 140.45 331.94 141.22 331.59C141.237 331.424 141.315 331.27 141.438 331.157C141.562 331.045 141.722 330.982 141.889 330.98C142.035 330.981 142.176 331.03 142.289 331.12L144.37 330.12C144.37 330.12 144.37 330.12 144.37 330.05C144.367 329.916 144.405 329.784 144.478 329.671C144.552 329.559 144.657 329.471 144.781 329.419C144.905 329.367 145.042 329.354 145.174 329.381C145.305 329.408 145.426 329.474 145.519 329.57C146.199 329.24 146.859 328.9 147.519 328.57C147.519 328.57 147.519 328.57 147.519 328.5C147.519 328.32 147.591 328.147 147.719 328.019C147.846 327.892 148.019 327.82 148.2 327.82C148.357 327.824 148.508 327.881 148.63 327.98C149.32 327.61 150.01 327.23 150.69 326.84C150.702 326.736 150.739 326.636 150.798 326.549C150.856 326.461 150.934 326.389 151.026 326.337C151.117 326.286 151.219 326.256 151.324 326.252C151.429 326.247 151.534 326.267 151.63 326.31C155.825 323.856 159.836 321.099 163.63 318.06C163.529 318.002 163.446 317.919 163.388 317.819C163.33 317.719 163.3 317.606 163.299 317.49C163.303 317.334 163.36 317.183 163.462 317.064C163.563 316.945 163.703 316.865 163.857 316.837C164.011 316.808 164.17 316.834 164.307 316.909C164.444 316.985 164.551 317.105 164.61 317.25C165.24 316.73 165.87 316.2 166.49 315.66C166.529 315.563 166.591 315.476 166.672 315.408C166.752 315.341 166.847 315.293 166.95 315.27C168.19 314.183 169.406 313.063 170.6 311.91V312C170.501 312.063 170.387 312.097 170.269 312.1C170.18 312.101 170.091 312.085 170.008 312.051C169.925 312.017 169.849 311.967 169.786 311.904C169.722 311.84 169.672 311.765 169.638 311.682C169.605 311.599 169.588 311.51 169.59 311.42C169.592 311.256 169.656 311.099 169.769 310.98L166.08 307.27C163.578 309.698 160.944 311.984 158.19 314.12C158.297 314.246 158.357 314.405 158.36 314.57C158.361 314.66 158.344 314.749 158.31 314.832C158.277 314.915 158.227 314.99 158.163 315.054C158.1 315.117 158.024 315.167 157.941 315.201C157.858 315.235 157.769 315.251 157.68 315.25C157.571 315.247 157.464 315.218 157.368 315.166C157.273 315.114 157.191 315.04 157.13 314.95C156.49 315.43 155.83 315.89 155.13 316.36C155.087 316.494 155.003 316.61 154.89 316.693C154.776 316.776 154.64 316.82 154.5 316.82C146.983 322.079 138.717 326.175 129.98 328.97C129.931 329.098 129.845 329.209 129.733 329.288C129.62 329.366 129.487 329.409 129.35 329.41C129.222 329.405 129.098 329.367 128.99 329.3C128.25 329.53 127.5 329.73 126.76 329.93C126.82 330.018 126.859 330.12 126.873 330.226C126.888 330.332 126.876 330.44 126.841 330.542C126.805 330.643 126.746 330.734 126.668 330.808C126.591 330.882 126.496 330.936 126.394 330.967C126.291 330.998 126.182 331.004 126.077 330.984C125.971 330.965 125.872 330.921 125.787 330.856C125.702 330.791 125.633 330.707 125.586 330.61C125.54 330.513 125.517 330.407 125.519 330.3C122.849 331.01 120.149 331.59 117.409 332.06C117.378 332.209 117.296 332.343 117.178 332.439C117.059 332.536 116.912 332.589 116.76 332.59C116.647 332.589 116.536 332.559 116.438 332.503C116.34 332.447 116.258 332.367 116.2 332.27C113.47 332.7 110.709 332.99 107.919 333.18C107.972 333.271 107.999 333.375 108 333.48C108 333.66 107.928 333.833 107.8 333.961C107.673 334.088 107.5 334.16 107.32 334.16C107.139 334.16 106.966 334.088 106.839 333.961C106.711 333.833 106.639 333.66 106.639 333.48C106.629 333.41 106.629 333.34 106.639 333.27C104.999 333.35 103.349 333.41 101.639 333.41C101.639 333.41 101.639 333.41 101.639 333.48C101.639 333.569 101.622 333.658 101.588 333.74C101.554 333.823 101.504 333.898 101.44 333.961C101.377 334.024 101.302 334.074 101.22 334.108C101.137 334.142 101.049 334.16 100.96 334.16C100.87 334.16 100.782 334.142 100.699 334.108C100.617 334.074 100.542 334.024 100.479 333.961C100.416 333.898 100.365 333.823 100.331 333.74C100.297 333.658 100.279 333.569 100.279 333.48C100.275 333.443 100.275 333.407 100.279 333.37C98.5895 333.37 96.9095 333.28 95.2795 333.16C95.3395 333.256 95.3709 333.367 95.3696 333.48C95.3696 333.66 95.2979 333.833 95.1703 333.961C95.0428 334.088 94.8699 334.16 94.6895 334.16C94.5092 334.16 94.3362 334.088 94.2087 333.961C94.0812 333.833 94.0096 333.66 94.0096 333.48C94.0123 333.333 94.0651 333.192 94.1595 333.08C91.3795 332.86 88.6295 332.527 85.9095 332.08C85.8708 332.239 85.7761 332.379 85.6426 332.474C85.5092 332.568 85.3461 332.612 85.1832 332.596C85.0203 332.58 84.8685 332.506 84.7558 332.387C84.6431 332.269 84.5769 332.113 84.5695 331.95C84.5695 331.95 84.5695 331.89 84.5695 331.85C81.7695 331.33 79.0061 330.663 76.2795 329.85C76.401 329.976 76.4692 330.145 76.4695 330.32C76.4695 330.5 76.3979 330.673 76.2703 330.801C76.1428 330.928 75.9698 331 75.7895 331C75.6091 331 75.4362 330.928 75.3087 330.801C75.1811 330.673 75.1096 330.5 75.1096 330.32C75.112 330.169 75.1644 330.024 75.2585 329.906C75.3526 329.788 75.4831 329.705 75.6296 329.67C74.8496 329.45 74.0695 329.2 73.2895 328.95C73.2459 329.087 73.1609 329.206 73.0462 329.292C72.9315 329.378 72.7928 329.426 72.6495 329.43C72.4691 329.43 72.2962 329.358 72.1686 329.231C72.0411 329.103 71.9695 328.93 71.9695 328.75C71.9592 328.677 71.9592 328.603 71.9695 328.53L69.7795 327.77C69.6816 327.825 69.5719 327.856 69.4595 327.86C69.32 327.857 69.1847 327.812 69.072 327.729C68.9593 327.647 68.8746 327.532 68.8295 327.4C63.5407 325.399 58.4489 322.912 53.6196 319.97C53.5311 319.956 53.4463 319.923 53.3707 319.875C53.295 319.827 53.23 319.764 53.1795 319.69C52.4395 319.23 51.6995 318.76 50.9695 318.28C50.8708 318.358 50.7517 318.407 50.6263 318.42C50.5009 318.432 50.3743 318.409 50.2618 318.352C50.1492 318.296 50.0552 318.208 49.991 318.099C49.9268 317.991 49.8951 317.866 49.8995 317.74C49.8938 317.693 49.8938 317.646 49.8995 317.6C49.2795 317.18 48.6695 316.73 48.0595 316.3C48.0311 316.468 47.9397 316.619 47.8039 316.722C47.6681 316.825 47.4983 316.872 47.3288 316.854C47.1593 316.837 47.003 316.755 46.8917 316.626C46.7803 316.497 46.7224 316.33 46.7296 316.16C46.7298 316.044 46.7604 315.931 46.8183 315.831C46.8762 315.731 46.9594 315.648 47.0595 315.59C44.104 313.421 41.276 311.084 38.5895 308.59C38.5487 308.694 38.4829 308.786 38.398 308.858C38.3131 308.931 38.2118 308.981 38.1028 309.005C37.9939 309.029 37.8807 309.026 37.7733 308.996C37.6658 308.966 37.5675 308.909 37.4869 308.832C37.4062 308.755 37.3459 308.66 37.311 308.554C37.2761 308.448 37.2678 308.335 37.2868 308.225C37.3058 308.115 37.3516 308.011 37.4201 307.923C37.4886 307.835 37.5777 307.765 37.6795 307.72C37.1895 307.25 36.6795 306.79 36.1995 306.31C34.8595 304.97 33.5795 303.58 32.3295 302.17C32.305 302.295 32.2458 302.411 32.1586 302.504C32.0715 302.597 31.96 302.664 31.8367 302.696C31.7135 302.729 31.5836 302.727 31.4617 302.689C31.3399 302.651 31.2311 302.58 31.1478 302.484C31.0644 302.387 31.0098 302.269 30.9903 302.143C30.9708 302.017 30.9871 301.888 31.0373 301.771C31.0875 301.654 31.1696 301.553 31.2744 301.481C31.3791 301.408 31.5022 301.366 31.6296 301.36C30.6296 300.24 29.7095 299.1 28.7995 297.93C28.7151 297.97 28.6228 297.99 28.5295 297.99C28.4398 297.991 28.3509 297.975 28.2678 297.941C28.1846 297.907 28.1091 297.857 28.0457 297.794C27.9823 297.73 27.9322 297.655 27.8985 297.572C27.8648 297.489 27.8482 297.4 27.8495 297.31C27.8523 297.163 27.9052 297.022 27.9996 296.91C27.0796 295.71 26.1962 294.497 25.3495 293.27C25.1745 293.262 25.0091 293.187 24.888 293.061C24.7669 292.934 24.6994 292.765 24.6995 292.59C24.6891 292.527 24.6891 292.463 24.6995 292.4C23.8495 291.13 23.0296 289.85 22.2396 288.54C22.0592 288.54 21.8862 288.468 21.7587 288.341C21.6312 288.213 21.5595 288.04 21.5595 287.86C21.5661 287.727 21.6113 287.598 21.6895 287.49C20.9495 286.22 20.2295 284.94 19.5495 283.64C19.4733 283.711 19.3819 283.762 19.2823 283.791C19.1827 283.82 19.0777 283.826 18.9755 283.808C18.8734 283.789 18.777 283.747 18.6938 283.685C18.6106 283.623 18.543 283.543 18.4963 283.45C18.4495 283.357 18.425 283.255 18.4245 283.151C18.424 283.048 18.4476 282.945 18.4935 282.852C18.5394 282.759 18.6063 282.678 18.6889 282.615C18.7715 282.552 18.8676 282.509 18.9695 282.49C17.8895 280.35 16.8795 278.17 15.9695 275.95C15.79 275.947 15.6185 275.875 15.4915 275.748C15.3645 275.621 15.2921 275.45 15.2895 275.27C15.29 275.173 15.3119 275.077 15.3533 274.989C15.3948 274.9 15.4548 274.822 15.5295 274.76C14.6595 272.53 13.8495 270.28 13.1495 267.99C13.048 268.045 12.935 268.076 12.8195 268.08C12.6546 268.06 12.5029 267.98 12.3928 267.856C12.2827 267.731 12.2219 267.571 12.2219 267.405C12.2219 267.239 12.2827 267.079 12.3928 266.954C12.5029 266.83 12.6546 266.75 12.8195 266.73C11.5949 262.495 10.6759 258.177 10.0695 253.81C9.96065 253.876 9.83685 253.914 9.70953 253.92C9.52919 253.92 9.35622 253.848 9.2287 253.721C9.10118 253.593 9.02948 253.42 9.02948 253.24C9.02948 253.06 9.10118 252.887 9.2287 252.759C9.35622 252.632 9.52919 252.56 9.70953 252.56C9.77885 252.546 9.85017 252.546 9.91949 252.56C9.83949 251.95 9.75952 251.34 9.68951 250.72C9.51357 250.717 9.34572 250.646 9.22223 250.52C9.09874 250.395 9.02946 250.226 9.02948 250.05C9.02881 249.897 9.08136 249.749 9.17804 249.63C9.27472 249.511 9.40953 249.43 9.55951 249.4C9.55951 248.77 9.4695 248.14 9.41949 247.51C9.30289 247.456 9.20421 247.37 9.13507 247.262C9.06593 247.154 9.02924 247.028 9.02948 246.9C9.03207 246.789 9.06168 246.679 9.11566 246.582C9.16965 246.484 9.24648 246.401 9.33954 246.34C9.33954 245.65 9.26958 244.95 9.24957 244.25C9.18048 244.186 9.12531 244.109 9.08759 244.023C9.04987 243.937 9.03033 243.844 9.03033 243.75C9.03033 243.656 9.04987 243.563 9.08759 243.477C9.12531 243.391 9.18048 243.314 9.24957 243.25C9.24957 242.49 9.19952 241.73 9.19952 240.97C9.1122 240.858 9.0631 240.722 9.05951 240.58C9.05991 240.43 9.11302 240.285 9.20953 240.17C9.20953 239.41 9.20953 238.67 9.20953 237.92C9.08308 237.788 9.01163 237.613 9.00958 237.43C9.00969 237.335 9.0302 237.241 9.06989 237.155C9.10957 237.069 9.16751 236.992 9.23956 236.93C9.23956 236.24 9.30956 235.55 9.34955 234.86C9.24539 234.803 9.15862 234.72 9.09869 234.617C9.03877 234.515 9.00801 234.399 9.00958 234.28C9.01006 234.144 9.05122 234.011 9.12787 233.899C9.20451 233.787 9.31306 233.7 9.43951 233.65C9.43951 233.03 9.51953 232.41 9.57953 231.8C9.42223 231.774 9.27893 231.694 9.17474 231.573C9.07056 231.453 9.01218 231.299 9.00958 231.14C9.00824 231.05 9.02484 230.961 9.05853 230.878C9.09222 230.795 9.14221 230.72 9.20563 230.656C9.26904 230.593 9.34456 230.543 9.42767 230.509C9.51079 230.475 9.59984 230.459 9.68951 230.46C9.74951 229.84 9.82948 229.22 9.90948 228.6C9.82538 228.641 9.73291 228.661 9.63947 228.66C9.45912 228.66 9.28615 228.588 9.15863 228.461C9.03111 228.333 8.95953 228.16 8.95953 227.98C8.95953 227.8 9.03111 227.627 9.15863 227.499C9.28615 227.372 9.45912 227.3 9.63947 227.3C9.79146 227.299 9.93803 227.357 10.0495 227.46C10.5559 224 11.2569 220.571 12.1495 217.19C12.1175 217.121 12.1005 217.046 12.0995 216.97C12.1012 216.87 12.1244 216.772 12.1675 216.683C12.2107 216.593 12.2728 216.514 12.3495 216.45C12.5295 215.79 12.6995 215.13 12.8995 214.45H12.7795C12.6682 214.45 12.5584 214.423 12.46 214.371C12.3616 214.319 12.2776 214.244 12.2151 214.151C12.1527 214.059 12.1137 213.953 12.1019 213.842C12.09 213.732 12.1055 213.62 12.147 213.517C12.1885 213.413 12.2548 213.322 12.3399 213.25C12.425 213.178 12.5266 213.128 12.6354 213.105C12.7443 213.082 12.8572 213.086 12.9643 213.116C13.0714 213.147 13.1693 213.203 13.2496 213.28C13.9629 210.987 14.7628 208.733 15.6495 206.52C15.5034 206.461 15.3831 206.351 15.3095 206.212C15.2359 206.072 15.2139 205.911 15.2474 205.757C15.2808 205.603 15.3676 205.466 15.4924 205.369C15.6172 205.273 15.7719 205.224 15.9295 205.23C15.9992 205.221 16.0698 205.221 16.1395 205.23C17.0695 202.99 18.1395 200.81 19.2095 198.65H19.0795C18.9596 198.648 18.8424 198.615 18.7396 198.553C18.6368 198.491 18.5521 198.404 18.4942 198.299C18.4363 198.194 18.4071 198.075 18.4097 197.955C18.4123 197.835 18.4467 197.718 18.5091 197.616C18.5715 197.514 18.6599 197.43 18.7653 197.372C18.8707 197.315 18.9893 197.287 19.1092 197.29C19.229 197.294 19.3458 197.329 19.4477 197.392C19.5496 197.455 19.6331 197.544 19.6895 197.65C20.3562 196.317 21.0762 195.023 21.8495 193.77C21.7567 193.711 21.6797 193.63 21.6257 193.534C21.5716 193.438 21.542 193.33 21.5395 193.22C21.5395 193.04 21.6112 192.867 21.7387 192.739C21.8662 192.612 22.0392 192.54 22.2195 192.54C22.3321 192.542 22.4422 192.573 22.5395 192.63C23.2995 191.4 24.0795 190.18 24.8895 188.98C24.7947 188.885 24.7303 188.764 24.7042 188.632C24.6781 188.501 24.6915 188.364 24.7429 188.24C24.7942 188.116 24.8811 188.01 24.9926 187.935C25.1041 187.86 25.2353 187.82 25.3696 187.82C25.47 187.823 25.5687 187.847 25.6595 187.89C26.4795 186.7 27.3396 185.54 28.2296 184.39C28.0926 184.323 27.9823 184.211 27.9164 184.073C27.8506 183.936 27.8329 183.78 27.8664 183.631C27.8999 183.482 27.9825 183.349 28.101 183.252C28.2195 183.156 28.3668 183.102 28.5195 183.1C28.6179 183.1 28.7149 183.123 28.8033 183.166C28.8916 183.21 28.9689 183.272 29.0295 183.35C30.6395 181.35 32.3495 179.35 34.1395 177.45C34.1478 177.292 34.2116 177.143 34.3195 177.027C34.4275 176.912 34.5727 176.839 34.7296 176.82C34.9796 176.56 35.2196 176.3 35.4796 176.04L32.3195 172.87C32.2978 173.03 32.2191 173.177 32.0978 173.283C31.9766 173.39 31.8209 173.449 31.6595 173.45C31.4799 173.447 31.3085 173.375 31.1816 173.248C31.0546 173.121 30.9821 172.95 30.9796 172.77C30.9825 172.609 31.0424 172.455 31.1486 172.334C31.2548 172.213 31.4004 172.134 31.5595 172.11L30.7895 171.34C30.0395 172.1 29.3095 172.89 28.5795 173.67C28.7445 173.696 28.8942 173.782 28.9998 173.912C29.1055 174.041 29.1597 174.205 29.1523 174.372C29.1449 174.539 29.0762 174.697 28.9595 174.817C28.8428 174.936 28.6862 175.009 28.5195 175.02C28.361 175.02 28.2078 174.963 28.087 174.861C27.9661 174.758 27.8856 174.616 27.8596 174.46C26.1096 176.41 24.4496 178.4 22.8596 180.46C22.8652 180.517 22.8652 180.573 22.8596 180.63C22.8609 180.719 22.8445 180.807 22.8115 180.889C22.7784 180.972 22.7292 181.047 22.6668 181.11C22.6045 181.174 22.5302 181.224 22.4483 181.258C22.3664 181.292 22.2784 181.31 22.1895 181.31C21.2895 182.51 20.4195 183.72 19.5795 184.96C19.6669 185.072 19.716 185.208 19.7195 185.35C19.7195 185.439 19.702 185.528 19.6678 185.61C19.6336 185.693 19.5835 185.768 19.5203 185.831C19.4572 185.894 19.3822 185.944 19.2997 185.978C19.2172 186.012 19.1288 186.03 19.0395 186.03C18.9829 186.035 18.9261 186.035 18.8696 186.03C18.0496 187.27 17.2496 188.53 16.4896 189.8C16.5417 189.891 16.5692 189.995 16.5695 190.1C16.5696 190.277 16.5007 190.447 16.3775 190.574C16.2543 190.701 16.0863 190.775 15.9095 190.78C14.6395 192.95 13.4496 195.17 12.3596 197.43C12.4684 197.345 12.6013 197.296 12.7396 197.29C12.8727 197.288 13.0034 197.326 13.1155 197.398C13.2276 197.469 13.3161 197.573 13.3701 197.694C13.424 197.816 13.441 197.951 13.419 198.082C13.397 198.214 13.3369 198.336 13.2462 198.433C13.1554 198.531 13.0382 198.599 12.9088 198.631C12.7793 198.662 12.6436 198.655 12.5182 198.61C12.3929 198.565 12.2836 198.484 12.2038 198.377C12.124 198.271 12.0774 198.143 12.0695 198.01C11.3995 199.43 10.7495 200.86 10.1495 202.31C10.2295 202.421 10.2748 202.553 10.2795 202.69C10.2769 202.849 10.2184 203.003 10.1142 203.123C10.01 203.244 9.86684 203.324 9.70953 203.35C8.70953 205.7 7.88957 208.09 7.11957 210.51C7.11917 210.66 7.06606 210.805 6.96954 210.92C6.75954 211.61 6.54955 212.31 6.34955 213H6.43951C6.61986 213 6.79283 213.072 6.92035 213.199C7.04787 213.327 7.11957 213.5 7.11957 213.68C7.11957 213.86 7.04787 214.033 6.92035 214.161C6.79283 214.288 6.61986 214.36 6.43951 214.36C6.28036 214.357 6.12773 214.297 6.00958 214.19C5.09601 217.502 4.35822 220.86 3.7995 224.25C3.91013 224.37 3.97096 224.527 3.96954 224.69C3.97002 224.807 3.9398 224.922 3.8819 225.024C3.82399 225.126 3.74036 225.211 3.63947 225.27C3.53946 225.9 3.44955 226.54 3.35956 227.17C3.52483 227.197 3.67436 227.284 3.77948 227.414C3.8846 227.545 3.93793 227.709 3.92926 227.876C3.92059 228.044 3.85052 228.202 3.73248 228.32C3.61444 228.439 3.45665 228.51 3.28949 228.52H3.1795L2.96954 230.42C3.06787 230.366 3.17732 230.335 3.28949 230.33C3.46983 230.33 3.64281 230.402 3.77032 230.529C3.89784 230.657 3.96954 230.83 3.96954 231.01C3.96954 231.19 3.89784 231.363 3.77032 231.491C3.64281 231.618 3.46983 231.69 3.28949 231.69C3.13571 231.684 2.98817 231.628 2.86957 231.53C2.79956 232.3 2.7395 233.08 2.6795 233.87C2.73897 233.724 2.8481 233.604 2.98761 233.53C3.12712 233.456 3.28807 233.434 3.4422 233.468C3.59633 233.501 3.73369 233.588 3.83014 233.713C3.92659 233.838 3.976 233.992 3.96954 234.15C3.97089 234.24 3.95416 234.329 3.92047 234.412C3.88678 234.495 3.83679 234.57 3.77338 234.634C3.70996 234.697 3.63445 234.747 3.55133 234.781C3.46822 234.815 3.37917 234.831 3.28949 234.83C3.1445 234.827 3.00424 234.778 2.8891 234.69C2.77396 234.602 2.68997 234.479 2.64948 234.34C2.52948 236.34 2.44952 238.42 2.44952 240.48C2.44952 242.54 2.50958 244.62 2.62958 246.67C2.65482 246.5 2.74333 246.346 2.87738 246.239C3.01143 246.132 3.18103 246.079 3.35223 246.092C3.52344 246.105 3.68353 246.181 3.80035 246.307C3.91718 246.433 3.98212 246.598 3.98212 246.77C3.98212 246.942 3.91718 247.107 3.80035 247.233C3.68353 247.359 3.52344 247.435 3.35223 247.448C3.18103 247.461 3.01143 247.408 2.87738 247.301C2.74333 247.194 2.65482 247.04 2.62958 246.87C2.62958 247.71 2.73952 248.56 2.81952 249.4C2.87962 249.339 2.95132 249.291 3.03033 249.258C3.10934 249.226 3.194 249.209 3.27948 249.21C3.45982 249.21 3.6328 249.282 3.76031 249.409C3.88783 249.537 3.95953 249.71 3.95953 249.89C3.95953 250.07 3.88783 250.243 3.76031 250.371C3.6328 250.498 3.45982 250.57 3.27948 250.57C3.14616 250.563 3.01765 250.518 2.90948 250.44C2.96948 251.107 3.03957 251.757 3.11957 252.39C3.17252 252.381 3.22653 252.381 3.27948 252.39C3.45982 252.39 3.6328 252.462 3.76031 252.589C3.88783 252.717 3.95953 252.89 3.95953 253.07C3.95953 253.25 3.88783 253.423 3.76031 253.551C3.6328 253.678 3.45982 253.75 3.27948 253.75C3.35948 254.37 3.44949 254.98 3.53949 255.59C3.66486 255.64 3.77216 255.728 3.84711 255.84C3.92206 255.952 3.96123 256.085 3.95953 256.22C3.96111 256.318 3.94034 256.414 3.89874 256.503C3.85715 256.591 3.79582 256.669 3.71954 256.73C4.26483 260.136 4.98909 263.51 5.88947 266.84C5.9713 266.722 6.08871 266.634 6.22443 266.588C6.36014 266.542 6.50711 266.541 6.64362 266.584C6.78012 266.628 6.89899 266.714 6.98285 266.83C7.06671 266.947 7.11115 267.087 7.10956 267.23C7.1109 267.32 7.09418 267.409 7.06049 267.492C7.02679 267.575 6.97681 267.65 6.91339 267.714C6.84998 267.777 6.77446 267.827 6.69135 267.861C6.60823 267.895 6.51918 267.911 6.4295 267.91C6.34685 267.925 6.26216 267.925 6.1795 267.91C6.3595 268.55 6.54956 269.2 6.73956 269.83C6.81982 269.869 6.89125 269.924 6.94965 269.992C7.00804 270.059 7.05217 270.138 7.07928 270.223C7.1064 270.308 7.11592 270.398 7.10736 270.487C7.0988 270.575 7.07233 270.662 7.02948 270.74C7.76282 273.073 8.5829 275.37 9.48956 277.63H9.57953C9.75816 277.63 9.92958 277.7 10.0568 277.826C10.1841 277.951 10.257 278.121 10.2596 278.3C10.2585 278.407 10.2315 278.512 10.181 278.606C10.1305 278.7 10.058 278.78 9.96954 278.84C10.9296 281.14 11.9729 283.4 13.0995 285.62C13.1912 285.68 13.2665 285.761 13.3189 285.857C13.3713 285.953 13.3989 286.061 13.3995 286.17C14.1095 287.55 14.8496 288.9 15.6196 290.24C15.7022 290.225 15.7869 290.225 15.8696 290.24C16.0499 290.24 16.2229 290.312 16.3504 290.439C16.4779 290.567 16.5495 290.74 16.5495 290.92C16.5495 291.021 16.526 291.12 16.4809 291.211C16.4358 291.301 16.3702 291.379 16.2895 291.44C17.0295 292.68 17.7995 293.91 18.5995 295.12C18.7161 295.018 18.8649 294.962 19.0195 294.96C19.199 294.963 19.3705 295.035 19.4975 295.162C19.6245 295.289 19.6969 295.46 19.6995 295.64C19.6977 295.762 19.6633 295.88 19.6 295.984C19.5367 296.088 19.4468 296.173 19.3395 296.23C20.1495 297.42 20.9796 298.6 21.8495 299.77C21.9438 299.715 22.0503 299.684 22.1595 299.68C22.2492 299.679 22.3382 299.695 22.4213 299.729C22.5044 299.763 22.58 299.813 22.6434 299.876C22.7068 299.94 22.7568 300.015 22.7905 300.098C22.8242 300.181 22.8409 300.27 22.8395 300.36C22.8402 300.535 22.7719 300.704 22.6495 300.83C23.5895 302.06 24.5595 303.26 25.5595 304.45C25.6602 304.492 25.7492 304.557 25.8189 304.641C25.8886 304.724 25.9369 304.824 25.9595 304.93C27.6595 306.93 29.4395 308.867 31.2995 310.74C31.4029 310.677 31.5214 310.645 31.6423 310.645C31.7631 310.645 31.8816 310.678 31.9848 310.741C32.088 310.804 32.1719 310.894 32.2274 311.002C32.2829 311.109 32.3078 311.229 32.2995 311.35C32.3008 311.443 32.2803 311.536 32.2396 311.62C34.1996 313.54 36.2228 315.37 38.3095 317.11C38.3504 317.134 38.3875 317.165 38.4195 317.2C39.0995 317.77 39.7896 318.33 40.4896 318.87C40.5495 318.772 40.6331 318.69 40.7326 318.633C40.8322 318.575 40.9445 318.543 41.0595 318.54C41.1492 318.539 41.2382 318.555 41.3214 318.589C41.4045 318.623 41.48 318.673 41.5434 318.736C41.6068 318.8 41.6568 318.875 41.6905 318.958C41.7242 319.041 41.7409 319.13 41.7396 319.22C41.7402 319.395 41.672 319.564 41.5495 319.69C50.7275 326.708 61.0732 332.05 72.1096 335.47C72.0276 335.411 71.9612 335.332 71.916 335.242C71.8707 335.151 71.8479 335.051 71.8495 334.95C71.848 334.817 71.8852 334.687 71.9567 334.575C72.0283 334.463 72.131 334.375 72.2521 334.321C72.3733 334.267 72.5076 334.249 72.6386 334.271C72.7696 334.292 72.8915 334.351 72.9893 334.441C73.0871 334.531 73.1565 334.647 73.1889 334.776C73.2213 334.904 73.2154 335.04 73.1718 335.165C73.1283 335.29 73.0489 335.4 72.9437 335.481C72.8384 335.562 72.7119 335.61 72.5795 335.62C73.3895 335.87 74.2095 336.1 75.0295 336.33C75.0687 336.167 75.1678 336.024 75.3069 335.931C75.4461 335.837 75.6155 335.799 75.7813 335.824C75.9472 335.849 76.0975 335.936 76.2027 336.067C76.3079 336.197 76.3604 336.363 76.3495 336.53C76.359 336.576 76.359 336.624 76.3495 336.67C79.0595 337.38 81.7995 337.98 84.5795 338.45C84.5048 338.348 84.463 338.226 84.4595 338.1C84.4584 337.985 84.4865 337.872 84.5411 337.77C84.5957 337.669 84.675 337.583 84.7718 337.521C84.8685 337.459 84.9794 337.422 85.0942 337.415C85.2089 337.407 85.3238 337.429 85.4279 337.477C85.5321 337.526 85.6222 337.601 85.6898 337.694C85.7573 337.787 85.8001 337.896 85.8143 338.01C85.8284 338.124 85.8134 338.24 85.7706 338.346C85.7278 338.453 85.6586 338.547 85.5695 338.62C86.4495 338.76 87.3295 338.89 88.2195 339.01H88.2895C88.3868 339.013 88.4823 339.037 88.5695 339.08C90.3195 339.32 92.0995 339.5 93.8995 339.64L93.8895 339.59ZM64.1995 561.79C64.2073 568.466 66.7826 574.883 71.3919 579.712C76.0012 584.541 82.2914 587.412 88.9595 587.73V514.9C82.5695 521.8 64.1995 543.37 64.1995 561.79ZM89.0595 462.54V408.88C82.7895 415.66 64.1995 437.35 64.1995 455.88C64.2073 462.556 66.7826 468.973 71.3919 473.802C76.0012 478.631 82.2914 481.502 88.9595 481.82V462.54H89.0595Z" fill="#5DA5C4"/>
<path d="M211.14 229.88C207.6 222.11 202.31 215.74 196.61 212.41L197.86 210.26C202.634 213.243 206.669 217.271 209.66 222.04C208.67 218.494 207.168 215.111 205.2 212L207.29 210.65C208.867 213.137 210.159 215.793 211.14 218.57V208.06C207.6 200.28 202.31 193.92 196.61 190.59L197.86 188.44C202.638 191.418 206.674 195.447 209.66 200.22C208.672 196.658 207.169 193.259 205.2 190.13L207.29 188.79C208.867 191.277 210.159 193.933 211.14 196.71V186.24C207.6 178.46 202.31 172.1 196.61 168.77L197.86 166.61C202.634 169.597 206.669 173.628 209.66 178.4C208.674 174.837 207.171 171.437 205.2 168.31L207.29 166.96C208.866 169.451 210.157 172.111 211.14 174.89V164.42C207.6 156.64 202.31 150.28 196.61 146.94L197.86 144.79C202.639 147.771 206.675 151.803 209.66 156.58C208.674 153.017 207.171 149.617 205.2 146.49L207.29 145.14C208.866 147.631 210.157 150.291 211.14 153.07V142.5C208.509 136.479 204.489 131.167 199.41 127L200.93 125C204.369 127.735 207.332 131.019 209.7 134.72C208.785 131.437 207.44 128.29 205.7 125.36L207.83 124.06C209.162 126.28 210.274 128.624 211.15 131.06V120.66C208.983 115.83 205.969 111.427 202.25 107.66L203.99 105.89C206.14 108.031 208.058 110.394 209.71 112.94C208.875 109.962 207.694 107.093 206.19 104.39L208.35 103.16C209.45 105.119 210.387 107.166 211.15 109.28V103.14H213.64V109.72C214.425 107.451 215.409 105.256 216.58 103.16L218.75 104.39C217.238 107.09 216.053 109.96 215.22 112.94C216.872 110.394 218.789 108.031 220.94 105.89L222.68 107.66C218.891 111.521 215.841 116.042 213.68 121V131.52C214.571 128.938 215.728 126.455 217.13 124.11L219.26 125.41C217.519 128.34 216.174 131.487 215.26 134.77C217.627 131.069 220.591 127.785 224.03 125.05L225.55 127.05C220.387 131.286 216.319 136.702 213.69 142.84V153.3C214.673 150.436 215.989 147.698 217.61 145.14L219.71 146.49C217.738 149.617 216.235 153.017 215.25 156.58C218.234 151.803 222.27 147.771 227.05 144.79L228.3 146.94C222.55 150.3 217.22 156.74 213.69 164.6V175.12C214.673 172.256 215.989 169.518 217.61 166.96L219.71 168.31C217.72 171.434 216.201 174.834 215.2 178.4C218.188 173.626 222.223 169.594 227 166.61L228.25 168.77C222.5 172.13 217.17 178.56 213.64 186.42V196.94C214.621 194.079 215.937 191.343 217.56 188.79L219.66 190.13C217.69 193.259 216.188 196.658 215.2 200.22C218.185 195.447 222.221 191.418 227 188.44L228.25 190.59C222.5 193.95 217.17 200.38 213.64 208.24V218.76C214.621 215.899 215.937 213.163 217.56 210.61L219.66 211.96C217.691 215.071 216.189 218.454 215.2 222C218.188 217.229 222.223 213.2 227 210.22L228.25 212.37C222.5 215.73 217.17 222.16 213.64 230.03V370.13H288.73V371.38C288.73 371.44 288.73 371.49 288.73 371.55C288.73 372.81 288.65 374.07 288.64 375.34C287.621 395.205 278.881 413.885 264.282 427.394C249.683 440.904 230.383 448.173 210.499 447.651C190.615 447.13 171.723 438.858 157.853 424.601C143.983 410.344 136.234 391.231 136.26 371.34V370.09H211.16L211.14 229.88ZM286.2 372.63H215.5L265.5 422.63C278.51 409.204 285.913 391.323 286.2 372.63ZM213.73 445.08C232.427 444.794 250.31 437.383 263.73 424.36L213.73 374.36V445.08ZM138.73 372.63C139.027 391.329 146.445 409.21 159.47 422.63L209.47 372.63H138.73ZM161.24 424.36C174.659 437.383 192.542 444.794 211.24 445.08V374.4L161.24 424.36Z" fill="#5DA5C4"/>
</svg>
