<svg width="180" height="431" viewBox="0 0 180 431" fill="none" xmlns="http://www.w3.org/2000/svg">
<path d="M21.7617 350.019C21.7617 305.578 56.8175 269.388 100.037 269.054L100.378 108.81H101.416C122.452 108.858 142.218 117.317 157.059 132.613C171.899 147.925 180.047 168.246 180 189.839C179.908 230.798 149.995 264.666 111.454 269.818C149.855 275.24 179.536 309.139 179.536 350.019C179.536 394.668 144.139 431 100.641 431C57.1428 431 21.7617 394.684 21.7617 350.019ZM110.4 267.83C110.447 267.512 110.71 267.258 111.035 267.258C111.299 267.258 111.531 267.417 111.639 267.655C112.368 267.56 113.096 267.464 113.824 267.337C113.917 267.29 114.01 267.258 114.118 267.258C114.134 267.258 114.149 267.274 114.164 267.274C117.603 266.669 120.949 265.843 124.218 264.777C124.218 264.396 124.512 264.094 124.884 264.094C125.101 264.094 125.287 264.205 125.411 264.38C127.641 263.617 129.826 262.758 131.948 261.804C131.932 261.74 131.917 261.693 131.917 261.629C131.917 261.247 132.211 260.945 132.583 260.945C132.815 260.945 133.001 261.072 133.125 261.247C134.535 260.58 135.929 259.88 137.292 259.133C137.261 259.133 137.23 259.149 137.199 259.149C136.828 259.149 136.533 258.846 136.533 258.465C136.533 258.083 136.828 257.781 137.199 257.781C137.571 257.781 137.865 258.083 137.865 258.465C137.865 258.64 137.803 258.799 137.695 258.91C142.404 256.286 146.819 253.17 150.878 249.624C150.599 249.545 150.382 249.29 150.382 248.972C150.382 248.591 150.676 248.289 151.048 248.289C151.389 248.289 151.652 248.543 151.699 248.877C152.83 247.859 153.945 246.81 155.014 245.729C155.06 245.411 155.293 245.172 155.602 245.14C156.176 244.552 156.733 243.932 157.291 243.312C157.26 243.312 157.229 243.328 157.198 243.328C156.826 243.328 156.532 243.026 156.532 242.644C156.532 242.262 156.826 241.96 157.198 241.96C157.57 241.96 157.864 242.262 157.864 242.644C157.864 242.66 157.849 242.676 157.849 242.708C159.584 240.768 161.226 238.748 162.759 236.634C162.713 236.538 162.682 236.443 162.682 236.331C162.682 235.95 162.976 235.648 163.348 235.648C163.379 235.648 163.394 235.664 163.425 235.664C163.859 235.059 164.293 234.439 164.696 233.819C164.417 233.74 164.215 233.485 164.215 233.183C164.215 232.802 164.51 232.499 164.881 232.499C165.083 232.499 165.269 232.595 165.393 232.754C165.842 232.054 166.291 231.355 166.709 230.639C166.616 230.687 166.523 230.719 166.431 230.719C166.059 230.719 165.764 230.417 165.764 230.035C165.764 229.653 166.059 229.351 166.431 229.351C166.787 229.351 167.081 229.637 167.097 230.019C169.312 226.219 171.217 222.228 172.797 218.046C172.735 218.062 172.673 218.094 172.596 218.094C172.224 218.094 171.93 217.792 171.93 217.41C171.93 217.028 172.224 216.726 172.596 216.726C172.844 216.726 173.061 216.869 173.169 217.076C173.432 216.345 173.68 215.613 173.913 214.882C173.649 214.786 173.463 214.548 173.463 214.246C173.463 213.864 173.758 213.562 174.129 213.562C174.207 213.562 174.269 213.578 174.331 213.61C174.579 212.815 174.796 212.02 175.028 211.209C175.028 211.161 174.997 211.129 174.997 211.082C174.997 210.891 175.074 210.732 175.183 210.605C175.926 207.87 176.531 205.087 176.964 202.241C176.716 202.146 176.531 201.907 176.531 201.605C176.531 201.239 176.809 200.953 177.166 200.937C177.414 199.204 177.584 197.471 177.723 195.706C177.599 195.865 177.413 195.976 177.197 195.976C176.825 195.976 176.531 195.674 176.531 195.293C176.531 194.911 176.825 194.609 177.197 194.609C177.444 194.609 177.661 194.752 177.77 194.975C177.878 193.273 177.956 191.556 177.956 189.823C177.956 187.565 177.863 185.339 177.677 183.113C177.553 183.256 177.383 183.351 177.181 183.351C176.809 183.351 176.515 183.049 176.515 182.668C176.515 182.286 176.809 181.984 177.181 181.984C177.352 181.984 177.491 182.048 177.599 182.159C177.444 180.426 177.212 178.708 176.949 176.991C176.701 176.896 176.515 176.641 176.515 176.355C176.515 176.148 176.608 175.974 176.763 175.846C176.623 175.004 176.469 174.161 176.298 173.318C176.252 173.636 175.988 173.891 175.663 173.891C175.291 173.891 174.997 173.589 174.997 173.207C174.997 172.825 175.291 172.523 175.663 172.523C175.895 172.523 176.081 172.65 176.205 172.825C175.601 169.963 174.842 167.133 173.928 164.382C173.665 164.287 173.463 164.048 173.463 163.746C173.463 163.603 173.525 163.46 173.603 163.349C173.355 162.633 173.076 161.934 172.813 161.218C172.751 161.25 172.673 161.266 172.596 161.266C172.224 161.266 171.93 160.964 171.93 160.582C171.93 160.296 172.1 160.057 172.348 159.946C172.085 159.262 171.79 158.594 171.496 157.927C171.372 158.038 171.233 158.102 171.062 158.102C170.69 158.102 170.396 157.799 170.396 157.418C170.396 157.068 170.66 156.782 170.985 156.75C170.675 156.066 170.35 155.383 170.024 154.699C169.9 154.842 169.73 154.937 169.529 154.937C169.157 154.937 168.863 154.635 168.863 154.254C168.863 153.888 169.141 153.602 169.482 153.586C169.141 152.918 168.801 152.25 168.444 151.598C168.32 151.71 168.165 151.789 167.995 151.789C167.623 151.789 167.329 151.487 167.329 151.105C167.329 150.787 167.546 150.533 167.825 150.453C167.468 149.817 167.112 149.181 166.725 148.561C166.647 148.593 166.554 148.625 166.461 148.625C166.09 148.625 165.795 148.323 165.795 147.941C165.795 147.734 165.888 147.56 166.028 147.432C165.61 146.765 165.191 146.097 164.742 145.429C164.463 145.349 164.246 145.095 164.246 144.777C164.246 144.761 164.262 144.729 164.262 144.713C162.759 142.503 161.133 140.357 159.398 138.29C159.413 138.353 159.429 138.401 159.429 138.465C159.429 138.846 159.134 139.148 158.763 139.148C158.391 139.148 158.096 138.846 158.096 138.465C158.096 138.083 158.391 137.781 158.763 137.781C158.856 137.781 158.933 137.797 159.01 137.829C158.468 137.193 157.926 136.572 157.353 135.952C157.306 135.968 157.275 135.984 157.229 135.984C156.857 135.984 156.563 135.682 156.563 135.3C156.563 135.237 156.578 135.189 156.594 135.125C156.269 134.792 155.974 134.426 155.649 134.092C154.131 132.518 152.535 131.039 150.924 129.624C150.707 129.576 150.537 129.417 150.475 129.211C149.313 128.209 148.12 127.239 146.912 126.317C146.788 126.428 146.649 126.492 146.478 126.492C146.107 126.492 145.812 126.189 145.812 125.808C145.812 125.712 145.828 125.633 145.859 125.553C144.712 124.711 143.535 123.884 142.342 123.121C142.218 123.248 142.048 123.343 141.862 123.343C141.49 123.343 141.196 123.041 141.196 122.66C141.196 122.564 141.211 122.485 141.242 122.389C139.988 121.594 138.702 120.847 137.416 120.147C137.354 120.163 137.308 120.179 137.246 120.179C136.967 120.179 136.719 119.988 136.626 119.734C134.504 118.605 132.351 117.571 130.136 116.665C130.027 116.888 129.81 117.031 129.562 117.031C129.191 117.031 128.896 116.729 128.896 116.347C128.896 116.284 128.912 116.22 128.927 116.172C126.681 115.282 124.388 114.503 122.049 113.835C121.987 113.851 121.925 113.867 121.863 113.867C121.662 113.867 121.492 113.771 121.368 113.628C120.733 113.453 120.082 113.294 119.447 113.135C119.447 113.151 119.462 113.167 119.462 113.183C119.462 113.565 119.168 113.867 118.796 113.867C118.424 113.867 118.13 113.565 118.13 113.183C118.13 113.056 118.177 112.944 118.239 112.833C113.127 111.656 107.875 110.989 102.515 110.909L102.5 116.061C103.104 116.077 103.724 116.077 104.328 116.109C104.421 115.838 104.653 115.648 104.947 115.648C105.257 115.648 105.505 115.87 105.583 116.172C106.187 116.204 106.775 116.252 107.364 116.299C107.38 115.934 107.658 115.648 108.03 115.648C108.402 115.648 108.696 115.95 108.696 116.331C108.696 116.363 108.681 116.379 108.681 116.411C109.3 116.474 109.92 116.57 110.524 116.649C110.478 116.554 110.447 116.443 110.447 116.331C110.447 115.95 110.741 115.648 111.113 115.648C111.485 115.648 111.779 115.95 111.779 116.331C111.779 116.506 111.717 116.665 111.608 116.776C114.955 117.269 118.254 118.001 121.476 118.971C121.585 118.875 121.724 118.812 121.894 118.812C122.189 118.812 122.437 119.018 122.514 119.289C123.18 119.495 123.831 119.734 124.481 119.956C124.373 119.829 124.311 119.686 124.311 119.495C124.311 119.114 124.605 118.812 124.977 118.812C125.349 118.812 125.643 119.114 125.643 119.495C125.643 119.829 125.411 120.1 125.101 120.147C126.65 120.704 128.168 121.324 129.671 121.976C129.81 121.992 129.95 122.055 130.043 122.151C130.786 122.485 131.545 122.819 132.273 123.184C132.103 123.057 131.994 122.866 131.994 122.644C131.994 122.262 132.289 121.96 132.661 121.96C133.032 121.96 133.327 122.262 133.327 122.644C133.327 123.025 133.032 123.327 132.661 123.327C132.599 123.327 132.537 123.311 132.475 123.296C133.9 123.995 135.278 124.758 136.657 125.553C136.75 125.299 136.998 125.124 137.277 125.124C137.649 125.124 137.943 125.426 137.943 125.808C137.943 125.967 137.881 126.094 137.803 126.221C139.012 126.953 140.22 127.732 141.382 128.543C141.506 128.384 141.676 128.288 141.893 128.288C142.265 128.288 142.559 128.59 142.559 128.972C142.559 129.099 142.513 129.226 142.451 129.322C143.613 130.165 144.759 131.039 145.874 131.945C145.952 131.659 146.199 131.437 146.509 131.437C146.881 131.437 147.175 131.739 147.175 132.12C147.175 132.375 147.036 132.597 146.835 132.709C148.647 134.235 150.382 135.857 152.071 137.574C152.163 137.67 152.241 137.765 152.334 137.86C152.442 137.797 152.551 137.749 152.675 137.749C153.046 137.749 153.341 138.051 153.341 138.433C153.341 138.576 153.294 138.703 153.217 138.814C154.983 140.706 156.625 142.678 158.174 144.729C158.189 144.364 158.484 144.077 158.84 144.077C159.212 144.077 159.506 144.38 159.506 144.761C159.506 145.143 159.212 145.445 158.84 145.445C158.794 145.445 158.747 145.429 158.701 145.413C159.165 146.049 159.615 146.685 160.048 147.337C160.141 147.273 160.25 147.242 160.374 147.242C160.745 147.242 161.04 147.544 161.04 147.925C161.04 148.132 160.947 148.307 160.807 148.434C161.241 149.086 161.659 149.754 162.062 150.422C162.356 150.485 162.573 150.756 162.573 151.074C162.573 151.121 162.558 151.169 162.542 151.217C164.804 154.985 166.694 158.944 168.243 163.062C168.522 163.142 168.723 163.396 168.723 163.699C168.723 163.826 168.677 163.937 168.615 164.048C168.878 164.764 169.11 165.495 169.358 166.227C169.436 166.195 169.513 166.179 169.606 166.179C169.978 166.179 170.272 166.481 170.272 166.863C170.272 167.181 170.055 167.435 169.777 167.515C170.024 168.341 170.257 169.168 170.489 170.011C170.505 169.645 170.783 169.343 171.155 169.343C171.527 169.343 171.821 169.645 171.821 170.027C171.821 170.408 171.527 170.711 171.155 170.711C170.907 170.711 170.706 170.567 170.582 170.361C171.326 173.175 171.914 176.037 172.317 178.947C172.425 178.867 172.549 178.82 172.689 178.82C173.061 178.82 173.355 179.122 173.355 179.503C173.355 179.885 173.061 180.187 172.689 180.187C172.611 180.187 172.534 180.171 172.456 180.14C172.658 181.809 172.828 183.494 172.921 185.18C173.169 185.275 173.339 185.53 173.339 185.816C173.339 186.07 173.185 186.293 172.983 186.404C173.03 187.485 173.061 188.567 173.061 189.648C173.061 190.284 173.03 190.92 173.014 191.556C173.2 191.683 173.339 191.89 173.339 192.128C173.339 192.383 173.185 192.605 172.983 192.717C172.921 194.418 172.797 196.104 172.611 197.773C172.627 197.773 172.658 197.757 172.673 197.757C173.045 197.757 173.339 198.059 173.339 198.441C173.339 198.822 173.045 199.125 172.673 199.125C172.596 199.125 172.518 199.109 172.441 199.077C172.085 201.859 171.604 204.594 170.954 207.266C171.016 207.25 171.062 207.234 171.124 207.234C171.496 207.234 171.79 207.536 171.79 207.917C171.79 208.299 171.496 208.601 171.124 208.601C170.954 208.601 170.799 208.522 170.675 208.41C170.489 209.142 170.272 209.873 170.071 210.605C170.179 210.732 170.257 210.891 170.257 211.082C170.257 211.4 170.04 211.654 169.746 211.734C167.406 219.382 163.859 226.473 159.367 232.818C159.429 232.929 159.491 233.04 159.491 233.183C159.491 233.565 159.196 233.867 158.825 233.867C158.763 233.867 158.701 233.851 158.654 233.835C158.205 234.455 157.725 235.059 157.244 235.68C157.26 235.68 157.275 235.664 157.291 235.664C157.663 235.664 157.957 235.966 157.957 236.347C157.957 236.729 157.663 237.031 157.291 237.031C156.966 237.031 156.702 236.777 156.64 236.459C155.045 238.446 153.341 240.338 151.544 242.135C151.699 242.262 151.792 242.437 151.792 242.66C151.792 243.041 151.497 243.344 151.126 243.344C150.909 243.344 150.723 243.232 150.599 243.057C147.377 246.19 143.876 249.02 140.127 251.5C140.205 251.469 140.267 251.453 140.359 251.453C140.731 251.453 141.026 251.755 141.026 252.136C141.026 252.518 140.731 252.82 140.359 252.82C139.988 252.82 139.693 252.518 139.693 252.136C139.693 251.962 139.771 251.787 139.879 251.675C137.757 253.075 135.557 254.363 133.296 255.523C133.203 255.794 132.97 255.984 132.676 255.984C132.614 255.984 132.552 255.968 132.49 255.953C131.127 256.636 129.733 257.256 128.323 257.845C128.555 257.956 128.726 258.195 128.726 258.465C128.726 258.846 128.432 259.149 128.06 259.149C127.688 259.149 127.394 258.846 127.394 258.465C127.394 258.369 127.409 258.274 127.456 258.195C126.774 258.465 126.077 258.751 125.38 259.005C125.271 259.085 125.132 259.149 124.993 259.149H124.977C122.653 259.975 120.283 260.691 117.867 261.279C117.929 261.375 117.975 261.502 117.975 261.629C117.975 262.011 117.681 262.313 117.309 262.313C116.937 262.313 116.643 262.011 116.643 261.629C116.643 261.613 116.659 261.597 116.659 261.565C116.039 261.709 115.419 261.836 114.8 261.947C114.691 262.154 114.474 262.297 114.226 262.297C114.056 262.297 113.917 262.233 113.793 262.122C110.028 262.806 106.171 263.187 102.221 263.235L102.206 267.321C102.422 267.433 102.577 267.655 102.577 267.926C102.577 268.1 102.515 268.259 102.407 268.371C103.089 268.355 103.77 268.323 104.452 268.291C104.374 268.18 104.328 268.053 104.328 267.926C104.328 267.544 104.622 267.242 104.994 267.242C105.366 267.242 105.66 267.544 105.66 267.926C105.66 268.053 105.614 268.148 105.567 268.259C106.202 268.228 106.822 268.164 107.441 268.116C107.426 268.053 107.41 267.989 107.41 267.926C107.41 267.544 107.705 267.242 108.077 267.242C108.448 267.242 108.743 267.544 108.743 267.926C108.743 267.957 108.727 267.973 108.727 268.005C109.223 267.957 109.812 267.91 110.4 267.83ZM102.299 182.922C103.011 183.033 103.677 183.272 104.297 183.606L141.459 131.309C130.105 123.041 116.628 118.478 102.438 118.239L102.299 182.922ZM102.128 261.12C116.643 260.929 130.105 256.159 141.211 248.145L104.281 195.754C103.662 196.072 102.996 196.31 102.283 196.421L102.128 261.12ZM167.097 212.894L107.178 192.78C106.853 193.432 106.45 194.036 105.954 194.545L142.884 246.937C153.976 238.414 162.496 226.585 167.097 212.894ZM150.506 139.116C148.182 136.731 145.704 134.537 143.132 132.534L105.985 184.814C106.481 185.323 106.884 185.927 107.194 186.579L167.221 166.688C163.844 156.416 158.189 147.003 150.506 139.116ZM170.892 189.68C170.892 182.461 169.854 175.417 167.871 168.707L107.844 188.598C107.891 188.948 107.953 189.298 107.953 189.664C107.953 190.03 107.906 190.395 107.844 190.761L167.778 210.875C169.792 204.181 170.892 197.058 170.892 189.68ZM102.283 194.291C104.343 193.814 105.877 191.922 105.877 189.68C105.877 187.438 104.343 185.562 102.299 185.069L102.283 194.291ZM177.491 350.019C177.491 306.532 143.024 271.153 100.656 271.153C58.2891 271.153 23.822 306.532 23.822 350.019C23.822 393.507 58.2891 428.885 100.656 428.885C143.024 428.885 177.491 393.507 177.491 350.019Z" fill="#00A6C7"/>
<path d="M-82 60.0982C-82 15.6566 -46.9443 -20.5328 -3.72488 -20.8667L-3.38407 -181.111H-2.34619C18.6903 -181.063 38.4566 -172.604 53.2968 -157.308C68.137 -141.996 76.2852 -121.675 76.2388 -100.082C76.1458 -59.123 46.233 -25.2552 7.69188 -20.1034C46.0936 -14.6814 75.774 19.2182 75.774 60.0982C75.774 104.746 40.3775 141.079 -3.12074 141.079C-46.619 141.079 -82 104.762 -82 60.0982ZM6.63849 -22.091C6.68496 -22.409 6.94831 -22.6634 7.27362 -22.6634C7.53696 -22.6634 7.76933 -22.5044 7.87776 -22.2659C8.60583 -22.3613 9.3339 -22.4567 10.062 -22.5839C10.1549 -22.6316 10.2479 -22.6634 10.3563 -22.6634C10.3718 -22.6634 10.3873 -22.6475 10.4028 -22.6475C13.8417 -23.2517 17.1877 -24.0786 20.4563 -25.1439C20.4563 -25.5255 20.7506 -25.8276 21.1224 -25.8276C21.3393 -25.8276 21.5252 -25.7163 21.6491 -25.5414C23.8798 -26.3046 26.064 -27.1632 28.1862 -28.1172C28.1707 -28.1808 28.1552 -28.2285 28.1552 -28.2921C28.1552 -28.6737 28.4496 -28.9759 28.8214 -28.9759C29.0537 -28.9759 29.2396 -28.8487 29.3635 -28.6738C30.7732 -29.3416 32.1674 -30.0412 33.5306 -30.7885C33.4996 -30.7885 33.4686 -30.7726 33.4376 -30.7726C33.0658 -30.7726 32.7715 -31.0747 32.7715 -31.4563C32.7715 -31.838 33.0658 -32.14 33.4376 -32.14C33.8094 -32.14 34.1037 -31.838 34.1037 -31.4563C34.1037 -31.2814 34.0417 -31.1224 33.9333 -31.0111C38.6425 -33.6347 43.0574 -36.7512 47.116 -40.297C46.8372 -40.3765 46.6203 -40.6309 46.6203 -40.9489C46.6203 -41.3305 46.9146 -41.6326 47.2864 -41.6326C47.6272 -41.6326 47.8906 -41.3782 47.937 -41.0443C49.0679 -42.0619 50.1832 -43.1113 51.2521 -44.1925C51.2985 -44.5105 51.5309 -44.749 51.8407 -44.7808C52.4139 -45.3691 52.9715 -45.9893 53.5292 -46.6094C53.4982 -46.6094 53.4673 -46.5935 53.4363 -46.5935C53.0645 -46.5935 52.7702 -46.8956 52.7702 -47.2772C52.7702 -47.6588 53.0645 -47.9609 53.4363 -47.9609C53.8081 -47.9609 54.1024 -47.6588 54.1024 -47.2772C54.1024 -47.2613 54.0869 -47.2454 54.0869 -47.2136C55.8219 -49.1535 57.4639 -51.1728 58.9975 -53.2876C58.951 -53.383 58.92 -53.4784 58.92 -53.5897C58.92 -53.9713 59.2144 -54.2734 59.5861 -54.2734C59.6171 -54.2734 59.6326 -54.2575 59.6636 -54.2575C60.0973 -54.8617 60.5311 -55.4818 60.9338 -56.102C60.655 -56.1815 60.4536 -56.4359 60.4536 -56.738C60.4536 -57.1196 60.7479 -57.4217 61.1197 -57.4217C61.3211 -57.4217 61.507 -57.3263 61.6309 -57.1673C62.0801 -57.8669 62.5294 -58.5665 62.9476 -59.282C62.8547 -59.2343 62.7617 -59.2025 62.6688 -59.2025C62.297 -59.2025 62.0027 -59.5046 62.0027 -59.8862C62.0027 -60.2678 62.297 -60.57 62.6688 -60.57C63.0251 -60.57 63.3194 -60.2837 63.3349 -59.9021C65.5501 -63.7023 67.4555 -67.6933 69.0355 -71.8751C68.9736 -71.8592 68.9116 -71.8274 68.8342 -71.8274C68.4624 -71.8274 68.168 -72.1295 68.168 -72.5111C68.168 -72.8927 68.4624 -73.1949 68.8342 -73.1949C69.082 -73.1949 69.2989 -73.0518 69.4073 -72.8451C69.6707 -73.5765 69.9185 -74.3079 70.1509 -75.0393C69.8875 -75.1347 69.7016 -75.3732 69.7016 -75.6753C69.7016 -76.0569 69.996 -76.359 70.3677 -76.359C70.4452 -76.359 70.5072 -76.3431 70.5691 -76.3113C70.817 -77.1064 71.0338 -77.9014 71.2662 -78.7123C71.2662 -78.76 71.2352 -78.7918 71.2352 -78.8395C71.2352 -79.0303 71.3127 -79.1893 71.4211 -79.3165C72.1647 -82.0514 72.7688 -84.8339 73.2026 -87.6801C72.9547 -87.7755 72.7688 -88.014 72.7688 -88.3161C72.7688 -88.6818 73.0477 -88.9681 73.4039 -88.984C73.6518 -90.7171 73.8222 -92.4503 73.9616 -94.2152C73.8377 -94.0562 73.6518 -93.9449 73.4349 -93.9449C73.0631 -93.9449 72.7688 -94.247 72.7688 -94.6286C72.7688 -95.0102 73.0631 -95.3123 73.4349 -95.3123C73.6828 -95.3123 73.8996 -95.1692 74.0081 -94.9466C74.1165 -96.6479 74.194 -98.3652 74.194 -100.098C74.194 -102.356 74.101 -104.582 73.9151 -106.808C73.7912 -106.665 73.6208 -106.57 73.4194 -106.57C73.0476 -106.57 72.7533 -106.872 72.7533 -107.253C72.7533 -107.635 73.0476 -107.937 73.4194 -107.937C73.5898 -107.937 73.7292 -107.874 73.8377 -107.762C73.6828 -109.495 73.4504 -111.213 73.1871 -112.93C72.9392 -113.025 72.7533 -113.28 72.7533 -113.566C72.7533 -113.773 72.8463 -113.948 73.0012 -114.075C72.8617 -114.917 72.7069 -115.76 72.5365 -116.603C72.49 -116.285 72.2266 -116.031 71.9013 -116.031C71.5296 -116.031 71.2352 -116.333 71.2352 -116.714C71.2352 -117.096 71.5296 -117.398 71.9013 -117.398C72.1337 -117.398 72.3196 -117.271 72.4435 -117.096C71.8394 -119.958 71.0803 -122.788 70.1664 -125.539C69.903 -125.634 69.7016 -125.873 69.7016 -126.175C69.7016 -126.318 69.7636 -126.461 69.841 -126.572C69.5932 -127.288 69.3144 -127.988 69.051 -128.703C68.9891 -128.671 68.9116 -128.655 68.8342 -128.655C68.4624 -128.655 68.168 -128.958 68.168 -129.339C68.168 -129.625 68.3384 -129.864 68.5863 -129.975C68.323 -130.659 68.0286 -131.327 67.7343 -131.994C67.6104 -131.883 67.471 -131.82 67.3006 -131.82C66.9288 -131.82 66.6344 -132.122 66.6344 -132.503C66.6344 -132.853 66.8978 -133.139 67.2231 -133.171C66.9133 -133.855 66.588 -134.539 66.2627 -135.222C66.1387 -135.079 65.9683 -134.984 65.767 -134.984C65.3952 -134.984 65.1009 -135.286 65.1009 -135.667C65.1009 -136.033 65.3797 -136.319 65.7205 -136.335C65.3797 -137.003 65.0389 -137.671 64.6826 -138.323C64.5587 -138.212 64.4038 -138.132 64.2334 -138.132C63.8616 -138.132 63.5673 -138.434 63.5673 -138.816C63.5673 -139.134 63.7841 -139.388 64.063 -139.468C63.7067 -140.104 63.3504 -140.74 62.9631 -141.36C62.8857 -141.328 62.7927 -141.296 62.6998 -141.296C62.328 -141.296 62.0337 -141.598 62.0337 -141.98C62.0337 -142.187 62.1266 -142.362 62.266 -142.489C61.8478 -143.157 61.4295 -143.824 60.9803 -144.492C60.7015 -144.572 60.4846 -144.826 60.4846 -145.144C60.4846 -145.16 60.5001 -145.192 60.5001 -145.208C58.9975 -147.418 57.3709 -149.564 55.636 -151.631C55.6515 -151.568 55.667 -151.52 55.667 -151.457C55.667 -151.075 55.3726 -150.773 55.0008 -150.773C54.6291 -150.773 54.3347 -151.075 54.3347 -151.457C54.3347 -151.838 54.6291 -152.14 55.0008 -152.14C55.0938 -152.14 55.1712 -152.124 55.2487 -152.093C54.7065 -152.729 54.1643 -153.349 53.5912 -153.969C53.5447 -153.953 53.5137 -153.937 53.4672 -153.937C53.0955 -153.937 52.8011 -154.239 52.8011 -154.621C52.8011 -154.684 52.8166 -154.732 52.8321 -154.796C52.5068 -155.13 52.2125 -155.495 51.8872 -155.829C50.3691 -157.403 48.7735 -158.882 47.1625 -160.297C46.9456 -160.345 46.7752 -160.504 46.7132 -160.711C45.5514 -161.712 44.3587 -162.682 43.1504 -163.604C43.0264 -163.493 42.887 -163.43 42.7166 -163.43C42.3448 -163.43 42.0505 -163.732 42.0505 -164.113C42.0505 -164.209 42.066 -164.288 42.097 -164.368C40.9507 -165.21 39.7733 -166.037 38.5806 -166.8C38.4566 -166.673 38.2862 -166.578 38.1003 -166.578C37.7286 -166.578 37.4342 -166.88 37.4342 -167.262C37.4342 -167.357 37.4497 -167.436 37.4807 -167.532C36.226 -168.327 34.9402 -169.074 33.6545 -169.774C33.5925 -169.758 33.5461 -169.742 33.4841 -169.742C33.2052 -169.742 32.9574 -169.933 32.8645 -170.187C30.7422 -171.316 28.589 -172.35 26.3738 -173.256C26.2654 -173.033 26.0485 -172.89 25.8006 -172.89C25.4289 -172.89 25.1345 -173.192 25.1345 -173.574C25.1345 -173.638 25.15 -173.701 25.1655 -173.749C22.9194 -174.639 20.6267 -175.418 18.2876 -176.086C18.2256 -176.07 18.1637 -176.055 18.1017 -176.055C17.9003 -176.055 17.7299 -176.15 17.606 -176.293C16.9709 -176.468 16.3202 -176.627 15.6851 -176.786C15.6851 -176.77 15.7006 -176.754 15.7006 -176.738C15.7006 -176.357 15.4063 -176.055 15.0345 -176.055C14.6627 -176.055 14.3684 -176.357 14.3684 -176.738C14.3684 -176.865 14.4149 -176.977 14.4768 -177.088C9.36487 -178.265 4.11349 -178.932 -1.24633 -179.012L-1.26182 -173.86C-0.657677 -173.844 -0.0380478 -173.844 0.566093 -173.813C0.659035 -174.083 0.891388 -174.274 1.18571 -174.274C1.49553 -174.274 1.74339 -174.051 1.82085 -173.749C2.42499 -173.717 3.01365 -173.669 3.6023 -173.622C3.61779 -173.987 3.89661 -174.274 4.26839 -174.274C4.64017 -174.274 4.93452 -173.972 4.93452 -173.59C4.93452 -173.558 4.91901 -173.542 4.91901 -173.51C5.53864 -173.447 6.15828 -173.351 6.76242 -173.272C6.71595 -173.367 6.68496 -173.479 6.68496 -173.59C6.68496 -173.972 6.9793 -174.274 7.35108 -174.274C7.72285 -174.274 8.01717 -173.972 8.01717 -173.59C8.01717 -173.415 7.95521 -173.256 7.84677 -173.145C11.1928 -172.652 14.4924 -171.92 17.7144 -170.95C17.8229 -171.046 17.9623 -171.109 18.1327 -171.109C18.427 -171.109 18.6749 -170.903 18.7523 -170.632C19.4184 -170.426 20.069 -170.187 20.7196 -169.965C20.6112 -170.092 20.5492 -170.235 20.5492 -170.426C20.5492 -170.807 20.8436 -171.109 21.2154 -171.109C21.5871 -171.109 21.8815 -170.807 21.8815 -170.426C21.8815 -170.092 21.6491 -169.822 21.3393 -169.774C22.8884 -169.217 24.4065 -168.597 25.9091 -167.945C26.0485 -167.929 26.1879 -167.866 26.2809 -167.77C27.0244 -167.436 27.7835 -167.103 28.5115 -166.737C28.3411 -166.864 28.2327 -167.055 28.2327 -167.277C28.2327 -167.659 28.527 -167.961 28.8988 -167.961C29.2706 -167.961 29.5649 -167.659 29.5649 -167.277C29.5649 -166.896 29.2706 -166.594 28.8988 -166.594C28.8368 -166.594 28.7749 -166.61 28.7129 -166.626C30.1381 -165.926 31.5167 -165.163 32.8954 -164.368C32.9884 -164.622 33.2362 -164.797 33.5151 -164.797C33.8869 -164.797 34.1812 -164.495 34.1812 -164.113C34.1812 -163.954 34.1192 -163.827 34.0418 -163.7C35.25 -162.968 36.4583 -162.189 37.6201 -161.378C37.7441 -161.537 37.9145 -161.633 38.1313 -161.633C38.5031 -161.633 38.7975 -161.331 38.7975 -160.949C38.7975 -160.822 38.751 -160.695 38.689 -160.599C39.8508 -159.757 40.9971 -158.882 42.1125 -157.976C42.1899 -158.262 42.4378 -158.485 42.7476 -158.485C43.1194 -158.485 43.4137 -158.182 43.4137 -157.801C43.4137 -157.546 43.2743 -157.324 43.0729 -157.213C44.8853 -155.686 46.6203 -154.064 48.3088 -152.347C48.4018 -152.252 48.4792 -152.156 48.5722 -152.061C48.6806 -152.124 48.789 -152.172 48.913 -152.172C49.2847 -152.172 49.5791 -151.87 49.5791 -151.488C49.5791 -151.345 49.5326 -151.218 49.4551 -151.107C51.2211 -149.215 52.8631 -147.243 54.4122 -145.192C54.4277 -145.558 54.722 -145.844 55.0783 -145.844C55.4501 -145.844 55.7444 -145.542 55.7444 -145.16C55.7444 -144.778 55.4501 -144.476 55.0783 -144.476C55.0318 -144.476 54.9854 -144.492 54.9389 -144.508C55.4036 -143.872 55.8528 -143.236 56.2866 -142.584C56.3795 -142.648 56.488 -142.68 56.6119 -142.68C56.9837 -142.68 57.278 -142.377 57.278 -141.996C57.278 -141.789 57.1851 -141.614 57.0456 -141.487C57.4794 -140.835 57.8976 -140.167 58.3004 -139.499C58.5947 -139.436 58.8116 -139.166 58.8116 -138.848C58.8116 -138.8 58.7961 -138.752 58.7806 -138.704C61.0423 -134.936 62.9321 -130.977 64.4812 -126.859C64.76 -126.779 64.9614 -126.525 64.9614 -126.223C64.9614 -126.095 64.915 -125.984 64.853 -125.873C65.1163 -125.157 65.3487 -124.426 65.5966 -123.694C65.674 -123.726 65.7515 -123.742 65.8444 -123.742C66.2162 -123.742 66.5105 -123.44 66.5105 -123.058C66.5105 -122.74 66.2936 -122.486 66.0148 -122.407C66.2627 -121.58 66.495 -120.753 66.7274 -119.91C66.7429 -120.276 67.0217 -120.578 67.3935 -120.578C67.7653 -120.578 68.0596 -120.276 68.0596 -119.894C68.0596 -119.513 67.7653 -119.211 67.3935 -119.211C67.1456 -119.211 66.9443 -119.354 66.8203 -119.56C67.5639 -116.746 68.1525 -113.884 68.5553 -110.974C68.6637 -111.054 68.7877 -111.101 68.9271 -111.101C69.2989 -111.101 69.5932 -110.799 69.5932 -110.418C69.5932 -110.036 69.2989 -109.734 68.9271 -109.734C68.8496 -109.734 68.7722 -109.75 68.6947 -109.782C68.8961 -108.112 69.0665 -106.427 69.1594 -104.741C69.4073 -104.646 69.5777 -104.391 69.5777 -104.105C69.5777 -103.851 69.4228 -103.628 69.2214 -103.517C69.2679 -102.436 69.2989 -101.354 69.2989 -100.273C69.2989 -99.6372 69.2679 -99.0012 69.2524 -98.3652C69.4383 -98.238 69.5777 -98.0313 69.5777 -97.7928C69.5777 -97.5384 69.4228 -97.3157 69.2214 -97.2044C69.1595 -95.5031 69.0355 -93.8177 68.8496 -92.1481C68.8651 -92.1481 68.8961 -92.164 68.9116 -92.164C69.2834 -92.164 69.5777 -91.8619 69.5777 -91.4803C69.5777 -91.0987 69.2834 -90.7966 68.9116 -90.7966C68.8341 -90.7966 68.7567 -90.8125 68.6792 -90.8443C68.3229 -88.0617 67.8427 -85.3268 67.1921 -82.6556C67.2541 -82.6715 67.3005 -82.6874 67.3625 -82.6874C67.7343 -82.6874 68.0286 -82.3853 68.0286 -82.0037C68.0286 -81.622 67.7343 -81.32 67.3625 -81.32C67.1921 -81.32 67.0372 -81.3994 66.9133 -81.5107C66.7274 -80.7793 66.5105 -80.0479 66.3091 -79.3165C66.4176 -79.1893 66.495 -79.0303 66.495 -78.8395C66.495 -78.5215 66.2782 -78.2671 65.9838 -78.1876C63.6447 -70.5395 60.0973 -63.4479 55.605 -57.1036C55.6669 -56.9923 55.7289 -56.8811 55.7289 -56.738C55.7289 -56.3563 55.4346 -56.0543 55.0628 -56.0543C55.0009 -56.0543 54.9389 -56.0701 54.8924 -56.086C54.4432 -55.4659 53.963 -54.8617 53.4827 -54.2416C53.4982 -54.2416 53.5137 -54.2575 53.5292 -54.2575C53.901 -54.2575 54.1953 -53.9554 54.1953 -53.5738C54.1953 -53.1922 53.901 -52.89 53.5292 -52.89C53.2039 -52.89 52.9406 -53.1445 52.8786 -53.4625C51.283 -51.4749 49.579 -49.5828 47.7821 -47.786C47.937 -47.6588 48.03 -47.4839 48.03 -47.2613C48.03 -46.8797 47.7357 -46.5776 47.3639 -46.5776C47.147 -46.5776 46.9611 -46.6889 46.8372 -46.8638C43.6151 -43.7314 40.1142 -40.9011 36.3654 -38.4207C36.4428 -38.4525 36.5048 -38.4684 36.5977 -38.4684C36.9695 -38.4684 37.2639 -38.1663 37.2639 -37.7847C37.2639 -37.4031 36.9695 -37.101 36.5977 -37.101C36.226 -37.101 35.9316 -37.4031 35.9316 -37.7847C35.9316 -37.9596 36.0091 -38.1345 36.1175 -38.2458C33.9953 -36.8466 31.7956 -35.5586 29.5339 -34.3979C29.441 -34.1276 29.2086 -33.9368 28.9143 -33.9368C28.8523 -33.9368 28.7904 -33.9527 28.7284 -33.9686C27.3652 -33.2849 25.9711 -32.6647 24.5614 -32.0764C24.7937 -31.9651 24.9641 -31.7267 24.9641 -31.4563C24.9641 -31.0747 24.6698 -30.7726 24.298 -30.7726C23.9263 -30.7726 23.6319 -31.0747 23.6319 -31.4563C23.6319 -31.5517 23.6474 -31.6471 23.6939 -31.7266C23.0123 -31.4563 22.3152 -31.1701 21.6181 -30.9157C21.5097 -30.8362 21.3703 -30.7726 21.2308 -30.7726H21.2154C18.8917 -29.9458 16.5216 -29.2303 14.1051 -28.6419C14.167 -28.5465 14.2135 -28.4193 14.2135 -28.2921C14.2135 -27.9105 13.9192 -27.6084 13.5474 -27.6084C13.1756 -27.6084 12.8813 -27.9105 12.8813 -28.2921C12.8813 -28.308 12.8968 -28.3239 12.8968 -28.3557C12.2772 -28.2126 11.6575 -28.0854 11.0379 -27.9742C10.9294 -27.7674 10.7126 -27.6243 10.4647 -27.6243C10.2943 -27.6243 10.1549 -27.6879 10.031 -27.7992C6.26672 -27.1155 2.4095 -26.7339 -1.54066 -26.6862L-1.55614 -22.5998C-1.33927 -22.4885 -1.18438 -22.2659 -1.18438 -21.9956C-1.18438 -21.8207 -1.24635 -21.6617 -1.35478 -21.5504C-0.673187 -21.5663 0.00842285 -21.5981 0.690018 -21.6299C0.612564 -21.7412 0.566093 -21.8684 0.566093 -21.9956C0.566093 -22.3772 0.860428 -22.6793 1.23221 -22.6793C1.60399 -22.6793 1.8983 -22.3772 1.8983 -21.9956C1.8983 -21.8684 1.85184 -21.773 1.80536 -21.6617C2.44048 -21.6935 3.0601 -21.7571 3.67974 -21.8048C3.66425 -21.8684 3.64877 -21.932 3.64877 -21.9956C3.64877 -22.3772 3.94308 -22.6793 4.31487 -22.6793C4.68665 -22.6793 4.98099 -22.3772 4.98099 -21.9956C4.98099 -21.9638 4.96548 -21.9479 4.96548 -21.9161C5.46118 -21.9638 6.04984 -22.0115 6.63849 -22.091ZM-1.4632 -106.999C-0.750626 -106.888 -0.0845337 -106.649 0.535103 -106.315L37.6976 -158.612C26.3428 -166.88 12.8658 -171.443 -1.32379 -171.682L-1.4632 -106.999ZM-1.63361 -28.8009C12.8813 -28.9918 26.3428 -33.7619 37.4497 -41.7757L0.519623 -94.1675C-0.100014 -93.8495 -0.766106 -93.611 -1.47868 -93.4997L-1.63361 -28.8009ZM63.3349 -77.0269L3.4164 -97.1409C3.09109 -96.4889 2.68834 -95.8847 2.19263 -95.3759L39.1227 -42.9841C50.2142 -51.5067 58.7341 -63.3366 63.3349 -77.0269ZM46.7442 -150.805C44.4206 -153.19 41.9421 -155.384 39.3706 -157.387L2.22362 -105.107C2.71933 -104.598 3.12209 -103.994 3.4319 -103.342L63.4588 -123.233C60.0818 -133.505 54.4277 -142.918 46.7442 -150.805ZM67.1302 -100.241C67.1302 -107.46 66.0923 -114.504 64.1094 -121.214L4.08251 -101.323C4.12899 -100.973 4.19094 -100.623 4.19094 -100.257C4.19094 -99.8916 4.14448 -99.5259 4.08251 -99.1602L64.0165 -79.0462C66.0303 -85.7403 67.1302 -92.8636 67.1302 -100.241ZM-1.47868 -95.6303C0.581596 -96.1073 2.11517 -97.9995 2.11517 -100.241C2.11517 -102.483 0.581589 -104.36 -1.4632 -104.853L-1.47868 -95.6303ZM73.7292 60.0982C73.7292 16.6106 39.2622 -18.7678 -3.10522 -18.7678C-45.4726 -18.7678 -79.9397 16.6106 -79.9397 60.0982C-79.9397 103.586 -45.4726 138.964 -3.10522 138.964C39.2622 138.964 73.7292 103.586 73.7292 60.0982Z" fill="#00A6C7"/>
<path d="M28.5148 210.334L27.7403 210.446C25.6025 210.764 23.5423 210.907 21.5904 210.907C14.0774 210.907 7.91207 208.617 3.57465 204.165C-1.90909 198.536 -4.01586 189.966 -2.54424 179.345L-2.43579 178.549L-1.66125 178.438C8.67111 176.928 17.0361 179.09 22.5199 184.719C28.0036 190.348 30.1104 198.918 28.6387 209.539L28.5148 210.334ZM-0.0347099 181.03C3.1409 194.148 13.3338 204.61 26.1137 207.87C22.9381 194.768 12.7452 184.29 -0.0347099 181.03ZM5.03076 202.67C9.0119 206.757 14.7745 208.792 21.8228 208.76C11.3355 204.833 2.92403 196.199 -0.902191 185.434C-0.933174 192.685 1.04963 198.584 5.03076 202.67ZM21.0483 186.229C17.0671 182.143 11.32 180.092 4.25622 180.14C14.7435 184.067 23.155 192.701 26.9812 203.465C27.0122 196.231 25.0294 190.332 21.0483 186.229Z" fill="#00A6C7"/>
<path d="M70.7283 252.884L70.6198 253.679L69.8453 253.79C67.7076 254.108 65.6473 254.251 63.6954 254.251C56.1824 254.251 50.0171 251.961 45.6796 247.509C40.1959 241.881 38.0891 233.31 39.5608 222.689L39.6692 221.894L40.4437 221.782C50.7761 220.272 59.1411 222.434 64.6249 228.063C70.0931 233.692 72.2154 242.262 70.7283 252.884ZM47.1358 245.999C51.1169 250.085 56.8795 252.12 63.9278 252.089C53.4405 248.161 45.029 239.527 41.2028 228.763C41.1718 235.997 43.1546 241.912 47.1358 245.999ZM68.2188 251.198C65.0431 238.08 54.8502 227.602 42.0703 224.358C45.2459 237.476 55.4388 247.955 68.2188 251.198ZM63.1533 229.558C59.1721 225.471 53.4095 223.436 46.3612 223.468C56.8485 227.395 65.26 236.029 69.0862 246.794C69.1172 239.559 67.1344 233.644 63.1533 229.558Z" fill="#00A6C7"/>
</svg>
